HIERARCHY
ROOT Hips
{
	OFFSET 0.000000 71.427986 0.000000
	CHANNELS 6 Xposition Yposition Zposition Xrotation Yrotation Zrotation
	JOINT Pelvis
	{
		OFFSET 0.000000 0.000000 0.000000
		CHANNELS 3 Xrotation Yrotation Zrotation
		JOINT LeftUpLeg
		{
			OFFSET 6.797100 -2.508499 -1.318700
			CHANNELS 3 Xrotation Yrotation Zrotation
			JOINT LeftLeg
			{
				OFFSET 0.069008 -29.241863 0.690200
				CHANNELS 3 Xrotation Yrotation Zrotation
				JOINT LeftFoot
				{
					OFFSET -0.069008 -29.568123 -0.266800
					CHANNELS 3 Xrotation Yrotation Zrotation
					JOINT LeftToeBase
					{
						OFFSET 3.145500 -8.631000 16.059900
						CHANNELS 3 Xrotation Yrotation Zrotation
						End Site
						{
							OFFSET 0.000000 18.501587 0.000000
						}
					}
				}
			}
			JOINT Left_ShortSleeve
			{
				OFFSET 0.265923 -10.480953 1.153800
				CHANNELS 3 Xrotation Yrotation Zrotation
				End Site
				{
					OFFSET 1.725763 19.823879 0.000000
				}
			}
		}
		JOINT RightUpLeg
		{
			OFFSET -6.797100 -2.508499 -1.318700
			CHANNELS 3 Xrotation Yrotation Zrotation
			JOINT RightLeg
			{
				OFFSET -0.082453 -29.241932 0.688000
				CHANNELS 3 Xrotation Yrotation Zrotation
				JOINT RightFoot
				{
					OFFSET 0.082453 -29.568058 -0.264600
					CHANNELS 3 Xrotation Yrotation Zrotation
					JOINT RightToeBase
					{
						OFFSET -3.115300 -8.682800 16.113400
						CHANNELS 3 Xrotation Yrotation Zrotation
						End Site
						{
							OFFSET 0.000000 18.567114 0.000000
						}
					}
				}
			}
			JOINT Right_ShortSleeve
			{
				OFFSET -0.265923 -10.480953 1.153800
				CHANNELS 3 Xrotation Yrotation Zrotation
				End Site
				{
					OFFSET -1.725766 19.823910 0.000000
				}
			}
		}
	}
	JOINT Spine
	{
		OFFSET 0.000000 13.368103 0.470500
		CHANNELS 3 Xrotation Yrotation Zrotation
		JOINT Spine1
		{
			OFFSET 0.147000 13.837402 0.538800
			CHANNELS 3 Xrotation Yrotation Zrotation
			JOINT Spine2
			{
				OFFSET 0.168000 16.242897 -1.435500
				CHANNELS 3 Xrotation Yrotation Zrotation
				JOINT Neck
				{
					OFFSET 0.217200 18.631500 -1.679100
					CHANNELS 3 Xrotation Yrotation Zrotation
					JOINT Head
					{
						OFFSET 0.000000 6.599396 1.385900
						CHANNELS 3 Xrotation Yrotation Zrotation
						JOINT Hat
						{
							OFFSET -0.532200 27.220596 -10.096100
							CHANNELS 3 Xrotation Yrotation Zrotation
							End Site
							{
								OFFSET 0.000000 22.029861 0.000000
							}
						}
						JOINT HairD
						{
							OFFSET -10.777400 17.437393 -1.325900
							CHANNELS 3 Xrotation Yrotation Zrotation
							JOINT HairD1
							{
								OFFSET -3.290299 -11.051193 1.062200
								CHANNELS 3 Xrotation Yrotation Zrotation
								End Site
								{
									OFFSET 0.000000 11.579437 0.000000
								}
							}
						}
						JOINT HairB
						{
							OFFSET -10.777400 17.437393 1.467900
							CHANNELS 3 Xrotation Yrotation Zrotation
							JOINT HairB1
							{
								OFFSET -1.561200 -12.956299 3.590200
								CHANNELS 3 Xrotation Yrotation Zrotation
								End Site
								{
									OFFSET 0.000000 13.534866 0.000000
								}
							}
						}
						JOINT HairA
						{
							OFFSET 9.713100 17.437393 1.467900
							CHANNELS 3 Xrotation Yrotation Zrotation
							JOINT HairA1
							{
								OFFSET 1.561200 -12.956299 3.590200
								CHANNELS 3 Xrotation Yrotation Zrotation
								End Site
								{
									OFFSET 0.000000 13.534866 0.000000
								}
							}
						}
						JOINT HairC
						{
							OFFSET 9.713100 17.437393 -1.325900
							CHANNELS 3 Xrotation Yrotation Zrotation
							JOINT HairC1
							{
								OFFSET 3.290300 -11.051193 1.062200
								CHANNELS 3 Xrotation Yrotation Zrotation
								End Site
								{
									OFFSET 0.000000 11.579437 0.000000
								}
							}
						}
					}
				}
				JOINT LeftShoulder
				{
					OFFSET 5.101800 15.108002 -2.763700
					CHANNELS 3 Xrotation Yrotation Zrotation
					JOINT LeftArm
					{
						OFFSET 9.825497 2.506317 -1.597400
						CHANNELS 3 Xrotation Yrotation Zrotation
						JOINT LeftForeArm
						{
							OFFSET 21.966244 0.000000 0.000000
							CHANNELS 3 Xrotation Yrotation Zrotation
							JOINT LeftHand
							{
								OFFSET 33.879036 0.000000 0.000000
								CHANNELS 3 Xrotation Yrotation Zrotation
								JOINT LeftHandThumb1
								{
									OFFSET 6.715286 -2.359680 3.363841
									CHANNELS 3 Xrotation Yrotation Zrotation
									JOINT LeftHandThumb2
									{
										OFFSET 2.507072 -1.447464 1.447461
										CHANNELS 3 Xrotation Yrotation Zrotation
										JOINT LeftHandThumb3
										{
											OFFSET 2.898338 -1.673355 1.673357
											CHANNELS 3 Xrotation Yrotation Zrotation
											End Site
											{
												OFFSET -0.295959 3.727692 -0.131651
											}
										}
									}
								}
								JOINT LeftHandIndex1
								{
									OFFSET 14.190811 -0.254547 3.840278
									CHANNELS 3 Xrotation Yrotation Zrotation
									JOINT LeftHandIndex2
									{
										OFFSET 3.551727 0.000000 -0.000000
										CHANNELS 3 Xrotation Yrotation Zrotation
										JOINT LeftHandIndex3
										{
											OFFSET 2.894196 0.000000 0.000000
											CHANNELS 3 Xrotation Yrotation Zrotation
											End Site
											{
												OFFSET -1.000603 2.690872 0.366626
											}
										}
									}
								}
								JOINT LeftHandMiddle1
								{
									OFFSET 13.776489 0.000000 0.000000
									CHANNELS 3 Xrotation Yrotation Zrotation
									JOINT LeftHandMiddle2
									{
										OFFSET 3.438232 0.000000 0.000000
										CHANNELS 3 Xrotation Yrotation Zrotation
										JOINT LeftHandMiddle3
										{
											OFFSET 3.691551 0.000000 0.000000
											CHANNELS 3 Xrotation Yrotation Zrotation
											End Site
											{
												OFFSET -1.082298 3.499527 0.457670
											}
										}
									}
								}
								JOINT LeftHandRing1
								{
									OFFSET 13.966164 -0.268127 -3.067488
									CHANNELS 3 Xrotation Yrotation Zrotation
									JOINT LeftHandRing2
									{
										OFFSET 3.162567 0.000000 0.000000
										CHANNELS 3 Xrotation Yrotation Zrotation
										JOINT LeftHandRing3
										{
											OFFSET 3.324348 0.000000 0.000000
											CHANNELS 3 Xrotation Yrotation Zrotation
											End Site
											{
												OFFSET -0.861900 3.184998 0.405154
											}
										}
									}
								}
								JOINT LeftHandPinky1
								{
									OFFSET 13.131393 -0.168503 -5.746925
									CHANNELS 3 Xrotation Yrotation Zrotation
									JOINT LeftHandPinky2
									{
										OFFSET 2.849182 0.000000 0.000000
										CHANNELS 3 Xrotation Yrotation Zrotation
										JOINT LeftHandPinky3
										{
											OFFSET 2.805038 0.000000 0.000000
											CHANNELS 3 Xrotation Yrotation Zrotation
											End Site
											{
												OFFSET -0.882500 2.642609 0.325652
											}
										}
									}
								}
							}
							JOINT Left_Sleeve
							{
								OFFSET 6.592125 -0.646545 0.805568
								CHANNELS 3 Xrotation Yrotation Zrotation
								End Site
								{
									OFFSET -0.000179 20.275787 -0.000000
								}
							}
						}
					}
				}
				JOINT RightShoulder
				{
					OFFSET -5.731700 15.108002 -2.763700
					CHANNELS 3 Xrotation Yrotation Zrotation
					JOINT RightArm
					{
						OFFSET -9.825497 2.506317 -1.597400
						CHANNELS 3 Xrotation Yrotation Zrotation
						JOINT RightForeArm
						{
							OFFSET -21.966242 0.000000 0.000000
							CHANNELS 3 Xrotation Yrotation Zrotation
							JOINT RightHand
							{
								OFFSET -33.879032 0.000000 0.000000
								CHANNELS 3 Xrotation Yrotation Zrotation
								JOINT RightHandThumb1
								{
									OFFSET -6.715286 -2.359680 3.363841
									CHANNELS 3 Xrotation Yrotation Zrotation
									JOINT RightHandThumb2
									{
										OFFSET -2.507072 -1.447464 1.447461
										CHANNELS 3 Xrotation Yrotation Zrotation
										JOINT RightHandThumb3
										{
											OFFSET -2.898338 -1.673355 1.673357
											CHANNELS 3 Xrotation Yrotation Zrotation
											End Site
											{
												OFFSET 0.295959 3.727692 -0.131651
											}
										}
									}
								}
								JOINT RightHandIndex1
								{
									OFFSET -14.190811 -0.254547 3.840278
									CHANNELS 3 Xrotation Yrotation Zrotation
									JOINT RightHandIndex2
									{
										OFFSET -3.551727 0.000000 -0.000000
										CHANNELS 3 Xrotation Yrotation Zrotation
										JOINT RightHandIndex3
										{
											OFFSET -2.894196 0.000000 0.000000
											CHANNELS 3 Xrotation Yrotation Zrotation
											End Site
											{
												OFFSET 1.000603 2.690872 0.366626
											}
										}
									}
								}
								JOINT RightHandMiddle1
								{
									OFFSET -13.776489 0.000000 0.000000
									CHANNELS 3 Xrotation Yrotation Zrotation
									JOINT RightHandMiddle2
									{
										OFFSET -3.438232 0.000000 0.000000
										CHANNELS 3 Xrotation Yrotation Zrotation
										JOINT RightHandMiddle3
										{
											OFFSET -3.691551 0.000000 0.000000
											CHANNELS 3 Xrotation Yrotation Zrotation
											End Site
											{
												OFFSET 1.082298 3.499527 0.457670
											}
										}
									}
								}
								JOINT RightHandRing1
								{
									OFFSET -13.966164 -0.268127 -3.067488
									CHANNELS 3 Xrotation Yrotation Zrotation
									JOINT RightHandRing2
									{
										OFFSET -3.162567 0.000000 0.000000
										CHANNELS 3 Xrotation Yrotation Zrotation
										JOINT RightHandRing3
										{
											OFFSET -3.324348 0.000000 0.000000
											CHANNELS 3 Xrotation Yrotation Zrotation
											End Site
											{
												OFFSET 0.861900 3.184998 0.405154
											}
										}
									}
								}
								JOINT RightHandPinky1
								{
									OFFSET -13.131393 -0.168503 -5.746925
									CHANNELS 3 Xrotation Yrotation Zrotation
									JOINT RightHandPinky2
									{
										OFFSET -2.849182 0.000000 0.000000
										CHANNELS 3 Xrotation Yrotation Zrotation
										JOINT RightHandPinky3
										{
											OFFSET -2.805038 0.000000 0.000000
											CHANNELS 3 Xrotation Yrotation Zrotation
											End Site
											{
												OFFSET 0.882500 2.642609 0.325652
											}
										}
									}
								}
							}
							JOINT Right_Sleeve
							{
								OFFSET -6.592125 -0.646545 0.805568
								CHANNELS 3 Xrotation Yrotation Zrotation
								End Site
								{
									OFFSET 0.000179 20.275787 -0.000000
								}
							}
						}
					}
				}
				JOINT Bind_Right_JacketString
				{
					OFFSET -3.534800 11.969597 7.200700
					CHANNELS 3 Xrotation Yrotation Zrotation
					JOINT Bind_Right_JacketString1
					{
						OFFSET -0.319900 -6.102600 2.794100
						CHANNELS 3 Xrotation Yrotation Zrotation
						End Site
						{
							OFFSET 0.000000 6.719452 0.000000
						}
					}
				}
				JOINT Bind_Left_JacketString
				{
					OFFSET 2.904800 11.969597 7.200700
					CHANNELS 3 Xrotation Yrotation Zrotation
					JOINT Bind_Left_JacketString1
					{
						OFFSET 0.364800 -5.904503 3.186800
						CHANNELS 3 Xrotation Yrotation Zrotation
						End Site
						{
							OFFSET 0.000000 6.719513 0.000000
						}
					}
				}
				JOINT HairE
				{
					OFFSET 5.915200 17.612701 -11.592200
					CHANNELS 3 Xrotation Yrotation Zrotation
					JOINT HairE1
					{
						OFFSET 0.289200 -7.171898 -1.284500
						CHANNELS 3 Xrotation Yrotation Zrotation
						End Site
						{
							OFFSET 0.000000 7.291756 0.000000
						}
					}
				}
				JOINT HairF
				{
					OFFSET -0.864800 17.612701 -11.592200
					CHANNELS 3 Xrotation Yrotation Zrotation
					JOINT HairF1
					{
						OFFSET 0.000000 -14.087097 -2.127501
						CHANNELS 3 Xrotation Yrotation Zrotation
						End Site
						{
							OFFSET 0.000000 14.246841 0.000000
						}
					}
				}
				JOINT HairG
				{
					OFFSET -8.087700 17.612701 -11.592200
					CHANNELS 3 Xrotation Yrotation Zrotation
					JOINT HairG1
					{
						OFFSET -0.293600 -6.081398 -0.910100
						CHANNELS 3 Xrotation Yrotation Zrotation
						End Site
						{
							OFFSET 0.000000 6.156120 0.000000
						}
					}
				}
			}
		}
	}
	JOINT Pouch
	{
		OFFSET 0.000000 4.394501 10.847300
		CHANNELS 3 Xrotation Yrotation Zrotation
		End Site
		{
			OFFSET 0.000000 21.880577 0.000000
		}
	}
	JOINT Bag
	{
		OFFSET -13.229000 4.813004 -0.593300
		CHANNELS 3 Xrotation Yrotation Zrotation
		End Site
		{
			OFFSET 0.000000 21.880577 0.000000
		}
	}
	JOINT OccupyGuyFacialAnim_Joint
	{
		OFFSET 1.000000 -70.206398 -1.655000
		CHANNELS 3 Xrotation Yrotation Zrotation
		End Site
		{
			OFFSET 0.000000 21.880577 0.000000
		}
	}
}
MOTION
Frames: 5
Frame Time: 0.033333
13.547989 35.117493 -8.260159 -12.198212 -57.608479 19.604528 0.000000 -0.000001 -0.000001 -74.357257 9.941801 31.113564 97.240843 6.359930 -6.471784 0.483008 1.774361 -14.382432 0.000000 0.000000 -0.000000 -0.000001 0.000002 -0.000001 -36.124621 30.960489 -33.543247 151.074919 -34.251565 10.447829 -13.487117 -6.228607 -25.286684 0.000001 -0.000001 -0.000000 -0.000002 -0.000001 -0.000001 36.501084 -3.872452 13.703688 -5.208715 -1.428551 0.211564 -5.228022 -1.323284 0.395014 2.891320 8.292545 3.177874 -1.284626 52.233885 -29.877799 -0.000001 0.000001 -0.000002 -0.000001 0.000001 -0.000002 -0.000001 0.000001 -0.000002 -0.000001 0.000001 -0.000002 -0.000001 0.000001 -0.000000 -0.000001 0.000001 -0.000002 -0.000001 0.000001 -0.000000 -0.000001 0.000001 -0.000002 -0.000001 0.000001 -0.000002 1.238002 -15.166625 9.647665 4.588843 -6.213465 -9.782211 0.000012 -9.063025 -0.000001 -29.419066 -9.237500 4.311729 -1.553673 -4.914015 4.868670 3.938101 7.937781 0.745937 0.000000 0.000002 0.000000 0.014854 0.452916 -3.755799 0.014841 0.452914 -3.755807 0.000001 0.000003 -0.000001 0.014722 0.450997 -3.739824 0.014975 0.454847 -3.771787 0.000001 -0.000001 -0.000005 0.014851 0.452920 -3.755804 0.014855 0.452913 -3.755804 -0.000001 0.000001 -0.000001 0.262958 4.499646 -3.256100 0.000832 -3.601493 -4.265543 -0.000002 -0.000001 0.000001 -0.000004 -0.000001 -0.000001 5.776583 14.305222 2.467727 1.669556 2.978334 29.777552 0.000003 41.723170 -0.000013 -49.538993 -3.065146 -2.844315 28.156244 -8.728744 22.625912 3.493430 -22.733361 -11.004724 0.000001 0.000001 0.000001 3.639489 -6.113252 61.503449 3.639448 -6.113194 61.503422 -0.000000 0.000001 -0.000001 3.639485 -6.113250 61.503442 3.639453 -6.113214 61.503429 0.000000 -0.000003 -0.000001 3.639475 -6.113216 61.503449 3.639464 -6.113219 61.503422 0.000002 -0.000000 -0.000002 3.639485 -6.113248 61.503456 3.639459 -6.113223 61.503422 -0.000000 -0.000001 0.000000 0.000002 -0.000002 0.000002 0.000002 0.000003 0.000003 0.000002 -0.000001 -0.000000 0.000002 0.000003 0.000002 0.000002 0.000003 0.000002 0.000002 0.000003 0.000003 0.000002 -0.000001 -0.000000 0.000002 0.000003 0.000002 0.000002 0.000003 0.000002 0.000002 0.000003 0.000003 0.000002 -0.000001 -0.000000 0.000000 -0.000001 -0.000001 0.000000 -0.000001 -0.000001 0.000000 -0.000001 -0.000001 
13.303531 35.426506 -8.046951 -11.605333 -57.723069 20.163420 -0.000000 -0.000001 -0.000003 -73.964467 10.395390 31.386485 96.815090 6.312332 -6.549792 0.214636 1.652937 -14.368389 0.000000 0.000000 0.000000 -0.000000 0.000001 -0.000001 -35.166288 30.865113 -33.932954 150.540730 -34.436383 10.392439 -13.893303 -6.175494 -23.507329 -0.000002 0.000002 -0.000000 -0.000003 0.000002 -0.000000 35.706248 -3.785794 13.835662 -5.187787 -1.398735 -0.011143 -5.210968 -1.307274 0.166161 2.322198 8.422822 3.144619 -1.458669 52.566884 -29.837121 -0.000000 0.000000 0.000001 -0.000000 0.000000 0.000001 -0.000000 0.000000 0.000001 -0.000000 0.000000 0.000001 -0.000002 0.000000 -0.000000 -0.000000 0.000000 0.000001 -0.000002 0.000000 -0.000000 -0.000000 0.000000 0.000001 -0.000000 0.000000 0.000001 1.430649 -14.931531 9.597323 3.842229 -6.406606 -9.294574 0.000001 -9.103558 0.000002 -28.203200 -9.215389 4.587564 -1.565115 -5.740972 4.745425 3.909211 7.603479 0.719272 0.000001 0.000002 0.000001 0.011188 0.392983 -3.258147 0.011177 0.392979 -3.258147 -0.000001 -0.000002 -0.000000 0.011070 0.391046 -3.242165 0.011290 0.394901 -3.274130 0.000001 -0.000000 -0.000001 0.011181 0.392982 -3.258147 0.011185 0.392973 -3.258145 0.000001 0.000001 -0.000002 0.224035 4.441676 -2.756701 -0.003369 -3.661377 -3.768180 -0.000001 0.000001 -0.000000 -0.000001 -0.000000 -0.000000 5.466872 13.352156 2.866574 9.238632 -4.300589 27.272011 -0.000001 38.800040 -0.000001 -37.312736 -4.172129 -2.592634 28.329963 -8.672425 22.766576 3.476545 -22.761612 -11.064730 0.000000 -0.000001 0.000000 3.639340 -6.113173 61.502220 3.639326 -6.113152 61.502213 -0.000000 -0.000000 -0.000002 3.639336 -6.113168 61.502213 3.639329 -6.113163 61.502192 0.000001 -0.000001 -0.000004 3.639324 -6.113122 61.502206 3.639332 -6.113183 61.502213 0.000002 0.000000 -0.000003 3.639331 -6.113170 61.502213 3.639335 -6.113184 61.502213 -0.000001 0.000001 0.000001 -0.000001 0.000002 -0.000002 0.000001 0.000000 -0.000000 0.000001 0.000001 0.000002 0.000001 0.000000 0.000001 0.000001 0.000000 0.000001 0.000001 0.000000 -0.000000 0.000001 0.000001 0.000003 0.000001 0.000000 0.000001 0.000001 0.000000 0.000001 0.000001 0.000000 -0.000000 0.000001 0.000001 0.000003 -0.000000 -0.000001 -0.000003 -0.000000 -0.000001 -0.000003 -0.000000 -0.000001 -0.000003 
12.973979 35.770634 -7.724144 -11.159740 -57.372886 20.386060 -0.000001 -0.000001 0.000002 -73.650804 10.661519 31.434791 96.564320 6.293053 -6.644456 -0.195369 1.538359 -14.200382 0.000000 0.000000 0.000000 -0.000001 0.000001 -0.000001 -33.996037 30.376238 -34.407546 149.660195 -34.410076 10.057535 -13.253520 -6.223078 -20.963307 -0.000002 0.000000 -0.000002 -0.000000 -0.000001 -0.000000 34.474389 -4.361944 13.635067 -4.964427 -1.432983 -0.059735 -4.988238 -1.352206 0.115585 2.012301 8.511523 3.277843 -1.680177 52.941319 -29.575272 0.000002 0.000000 -0.000000 0.000002 0.000000 -0.000000 0.000002 0.000000 -0.000000 0.000002 0.000000 -0.000001 0.000002 0.000000 0.000000 0.000002 0.000000 -0.000001 0.000002 0.000000 0.000000 0.000002 0.000000 -0.000000 0.000002 0.000000 -0.000000 1.636934 -14.998380 9.549083 2.396801 -5.697369 -8.624223 0.000002 -9.327177 -0.000002 -26.806454 -9.282998 4.831923 -1.573647 -6.285792 4.664039 3.859318 7.029910 0.673152 -0.000001 0.000001 0.000002 0.008525 0.343447 -2.847234 0.008546 0.343436 -2.847227 0.000003 0.000003 0.000002 0.008432 0.341534 -2.831252 0.008639 0.345367 -2.863206 0.000003 -0.000002 0.000000 0.008522 0.343439 -2.847227 0.008547 0.343445 -2.847220 -0.000001 -0.000001 -0.000002 0.192267 4.393587 -2.344410 -0.006468 -3.710877 -3.357482 0.000000 -0.000003 -0.000001 -0.000001 -0.000001 -0.000001 5.326688 13.006347 2.439573 15.384748 -9.807092 26.304696 0.000006 32.449518 -0.000004 -39.534757 -4.700672 -2.545828 28.639851 -8.569657 23.016587 3.446223 -22.812099 -11.172075 0.000002 -0.000001 -0.000001 3.639533 -6.113279 61.503982 3.639514 -6.113239 61.503996 -0.000001 0.000002 -0.000001 3.639527 -6.113269 61.503968 3.639522 -6.113263 61.504002 0.000001 0.000001 -0.000001 3.639513 -6.113224 61.503968 3.639515 -6.113277 61.503996 0.000000 0.000002 -0.000002 3.639531 -6.113265 61.503968 3.639518 -6.113269 61.503996 -0.000000 0.000002 -0.000003 0.000001 -0.000000 -0.000000 0.000003 0.000003 0.000003 -0.000001 -0.000002 -0.000003 0.000003 0.000003 0.000003 0.000003 0.000003 0.000003 0.000003 0.000003 0.000003 -0.000001 -0.000002 -0.000003 0.000003 0.000003 0.000003 0.000003 0.000003 0.000003 0.000003 0.000003 0.000003 -0.000001 -0.000002 -0.000003 -0.000001 -0.000001 0.000002 -0.000001 -0.000001 0.000002 -0.000001 -0.000001 0.000002 
12.548349 36.121197 -7.320938 -11.031028 -56.764736 20.243443 -0.000002 0.000002 -0.000000 -73.401236 11.097562 31.516231 96.548467 6.355343 -6.560706 -0.831459 1.269551 -13.837524 0.000000 -0.000001 0.000000 -0.000000 -0.000001 -0.000001 -32.321176 29.391889 -35.205783 148.590274 -34.223715 9.715243 -12.402889 -6.237374 -18.241960 0.000002 -0.000001 -0.000000 -0.000003 0.000001 0.000004 33.161897 -5.528707 13.099818 -4.720729 -1.523613 -0.083642 -4.744068 -1.455909 0.096140 2.260326 8.683920 3.304613 -2.864424 53.913439 -28.379608 -0.000001 -0.000000 0.000001 -0.000001 -0.000000 0.000001 -0.000001 -0.000000 0.000001 -0.000001 -0.000000 0.000000 -0.000001 -0.000001 -0.000000 -0.000001 -0.000000 0.000000 -0.000001 -0.000001 -0.000000 -0.000001 -0.000000 0.000001 -0.000001 -0.000000 0.000001 1.780410 -15.207823 9.520736 1.079627 -4.492378 -7.762373 0.000014 -9.545143 0.000014 -25.468104 -9.247131 4.994065 -1.576994 -6.487171 4.633913 3.787552 6.213183 0.606712 -0.000000 -0.000000 0.000000 0.007132 0.313951 -2.602441 0.007125 0.313955 -2.602441 0.000001 0.000001 0.000002 0.007038 0.312036 -2.586470 0.007219 0.315871 -2.618417 0.000002 -0.000001 -0.000003 0.007137 0.313944 -2.602435 0.007138 0.313950 -2.602428 -0.000001 0.000001 -0.000001 0.173529 4.364830 -2.098810 -0.008145 -3.740357 -3.112818 -0.000001 -0.000002 0.000002 -0.000001 0.000001 0.000000 5.141267 12.541915 1.900273 17.306839 -15.267129 25.756807 0.000011 26.491333 0.000002 -45.482694 -5.591369 -1.999319 29.036821 -8.433534 23.335206 3.406906 -22.876947 -11.310186 -0.000002 -0.000004 0.000000 3.640072 -6.113570 61.508989 3.640034 -6.113515 61.508982 -0.000001 0.000001 -0.000001 3.640063 -6.113562 61.508982 3.640052 -6.113541 61.508982 0.000003 0.000002 -0.000000 3.640047 -6.113514 61.508989 3.640054 -6.113561 61.509002 0.000001 -0.000001 -0.000001 3.640057 -6.113558 61.508982 3.640058 -6.113561 61.508995 -0.000000 -0.000000 0.000001 0.000002 -0.000001 -0.000000 -0.000001 0.000001 0.000003 0.000002 -0.000001 0.000001 -0.000001 0.000001 0.000001 -0.000001 0.000001 0.000001 -0.000001 0.000001 0.000003 0.000002 -0.000001 0.000002 -0.000001 0.000001 0.000001 -0.000001 0.000001 0.000001 -0.000001 0.000001 0.000003 0.000002 -0.000001 0.000002 -0.000002 0.000002 -0.000000 -0.000002 0.000002 -0.000000 -0.000002 0.000002 -0.000000 
12.040078 36.495361 -6.855022 -10.830021 -56.251068 19.994409 -0.000001 -0.000002 0.000001 -73.201036 11.574469 31.896188 96.670597 6.464061 -6.325572 -1.676489 0.791544 -13.491732 0.000000 0.000001 -0.000000 -0.000002 0.000000 0.000002 -30.644364 28.164516 -35.759472 147.392368 -34.017798 9.312570 -11.832782 -5.826293 -15.837125 -0.000000 0.000002 0.000001 -0.000001 0.000001 -0.000001 31.722189 -6.726860 12.249688 -4.521339 -1.597696 -0.178292 -4.544419 -1.546890 0.003595 2.765453 8.863633 3.201003 -4.136902 54.896802 -27.003056 0.000001 -0.000001 0.000000 0.000001 -0.000001 0.000000 0.000001 -0.000001 0.000001 0.000001 -0.000001 0.000000 0.000000 -0.000000 0.000000 0.000001 -0.000001 0.000000 0.000000 -0.000000 0.000000 0.000001 -0.000001 0.000000 0.000001 -0.000001 0.000000 1.816964 -15.377727 9.517380 0.176881 -3.545742 -6.863378 -0.000010 -9.684728 -0.000002 -23.723583 -9.039048 5.172446 -1.576266 -6.443192 4.640480 3.705917 5.295611 0.530956 0.000000 0.000002 0.000001 0.007066 0.312710 -2.592099 0.007067 0.312717 -2.592101 -0.000000 0.000001 0.000000 0.006987 0.310774 -2.576107 0.007155 0.314645 -2.608093 -0.000001 -0.000002 0.000002 0.007069 0.312716 -2.592094 0.007078 0.312698 -2.592098 -0.000001 0.000001 -0.000001 0.172726 4.363629 -2.088429 -0.008211 -3.741603 -3.102474 0.000000 -0.000000 0.000003 0.000001 -0.000002 -0.000001 4.784971 11.583606 1.237084 12.121500 -22.934785 23.207777 0.000014 24.575267 0.000010 -49.547244 -6.247858 -2.645778 29.438371 -8.290730 23.655646 3.366626 -22.942761 -11.450568 0.000003 -0.000003 -0.000001 3.639907 -6.113492 61.507616 3.639911 -6.113455 61.507622 -0.000000 -0.000001 0.000002 3.639908 -6.113482 61.507629 3.639916 -6.113473 61.507629 0.000000 0.000000 -0.000001 3.639909 -6.113441 61.507629 3.639916 -6.113473 61.507629 0.000000 -0.000000 0.000001 3.639915 -6.113494 61.507636 3.639917 -6.113462 61.507602 -0.000000 0.000000 0.000001 0.000001 0.000001 0.000001 -0.000000 0.000001 0.000001 0.000001 0.000000 0.000001 -0.000000 0.000001 -0.000000 -0.000000 0.000001 -0.000000 -0.000000 0.000001 0.000001 0.000001 0.000000 0.000001 -0.000000 0.000001 -0.000000 -0.000000 0.000001 -0.000000 -0.000000 0.000001 0.000001 0.000001 0.000000 0.000001 -0.000001 -0.000002 0.000001 -0.000001 -0.000002 0.000001 -0.000001 -0.000002 0.000001 
